<?xml version="1.0" standalone="no"?>
<!DOCTYPE svg PUBLIC "-//W3C//DTD SVG 20010904//EN"
 "http://www.w3.org/TR/2001/REC-SVG-20010904/DTD/svg10.dtd">
<svg version="1.0" xmlns="http://www.w3.org/2000/svg"
 width="512.000000pt" height="512.000000pt" viewBox="0 0 512.000000 512.000000"
 preserveAspectRatio="xMidYMid meet">
<metadata>
Created by potrace 1.14, written by Peter Selinger 2001-2017
</metadata>
<g transform="translate(0.000000,512.000000) scale(0.100000,-0.100000)"
fill="#000000" stroke="none">
<path d="M0 2560 l0 -2560 645 0 c609 0 644 1 638 18 -8 22 -22 45 -98 162
-105 161 -119 184 -132 210 -7 14 -17 32 -22 40 -29 43 -64 138 -72 193 -15
105 -11 393 6 426 17 34 6 88 -25 116 -12 11 -18 26 -15 39 2 12 6 59 9 106 6
111 17 140 53 140 214 3 283 20 377 89 63 47 150 132 181 177 103 151 182 445
206 764 20 281 52 396 184 665 109 220 214 374 485 711 113 140 175 241 211
344 19 55 23 93 27 242 5 202 10 219 59 199 17 -7 57 -38 90 -69 33 -31 80
-75 104 -98 60 -55 127 -128 153 -167 12 -17 48 -69 79 -114 67 -97 187 -334
227 -447 27 -76 51 -176 87 -356 12 -61 14 -130 8 -370 -3 -162 -10 -335 -16
-385 -5 -49 -12 -160 -15 -245 -6 -155 -6 -155 24 -233 58 -149 121 -221 242
-279 58 -29 77 -32 180 -36 63 -2 120 -9 127 -14 6 -5 15 -34 19 -65 5 -42 11
-57 25 -60 11 -3 19 -12 19 -19 0 -8 4 -22 9 -32 32 -62 34 -74 28 -159 -3
-48 -16 -117 -27 -153 -27 -81 -37 -223 -21 -283 22 -77 134 -166 229 -182 27
-4 42 -12 42 -22 0 -25 -72 -226 -94 -263 -12 -19 -27 -44 -33 -55 -54 -94
-111 -180 -153 -235 -111 -143 -165 -217 -188 -257 l-24 -43 641 0 641 0 0
2560 0 2560 -2560 0 -2560 0 0 -2560z m605 -270 c9 -19 23 -42 32 -52 16 -17
31 -98 19 -98 -9 0 -86 77 -86 85 0 4 -9 19 -19 34 -20 28 -25 53 -23 106 l2
29 30 -34 c17 -19 37 -51 45 -70z"/>
</g>
</svg>
